<svg width="49" height="46" viewBox="0 0 49 46" fill="none" xmlns="http://www.w3.org/2000/svg">
<path fill-rule="evenodd" clip-rule="evenodd" d="M9.78859 3.36206H38.9999C43.3955 3.36206 45.8529 5.45905 45.8529 10.1011V36.1074C45.8529 40.5683 43.4996 42.877 38.9999 42.877H9.78859C5.17965 42.877 2.95996 40.603 2.95996 36.1074V10.1011C2.95996 5.68466 5.14494 3.36206 9.78859 3.36206ZM9.58675 13.3385C7.65195 13.3385 6.68312 14.2995 6.68312 16.325C6.68312 18.3504 6.67696 34.3494 6.67696 36.2447C6.67696 38.1401 7.64793 39.2365 9.58634 39.2365H39.2055C41.0558 39.2365 42.1891 38.1401 42.1891 36.2529V16.3301C42.1891 14.3137 41.0272 13.3385 39.1975 13.3385H9.58675Z" fill="#E9AB2C"/>
<path d="M13.4055 18.8446C13.5986 18.8446 13.7908 18.8719 13.9763 18.9257L14.0448 18.9456C14.3146 19.024 14.5697 19.1464 14.7996 19.308L14.8565 19.348C15.1847 19.5786 15.4603 19.876 15.6652 20.2207V20.2207C15.8146 20.4719 15.9243 20.7446 15.9905 21.0292L16.0307 21.2024C16.0996 21.4984 16.1344 21.8014 16.1344 22.1054V23.5737L15.8906 25.5483L15.5006 27.3765V27.3765C15.444 27.6687 15.7597 27.8901 16.0151 27.7376L17.053 27.1177C17.0906 27.0953 17.1264 27.0701 17.1603 27.0424L17.8381 26.4868C18.3429 26.073 18.815 25.6208 19.2503 25.1344L19.8397 24.4757L20.961 23.1593L22.2286 21.7698L22.8817 21.1331C23.0954 20.9248 23.3367 20.7468 23.5989 20.6043L23.7849 20.5032C24.1394 20.3106 24.5364 20.2097 24.9398 20.2097H25.0071C25.3283 20.2097 25.6453 20.2825 25.9344 20.4226V20.4226C26.1757 20.5396 26.3927 20.7012 26.5739 20.8989L26.6825 21.0174C26.9605 21.3207 27.1724 21.6785 27.3047 22.0681L27.4239 22.4192C27.5031 22.6522 27.5639 22.8911 27.6059 23.1336L27.7622 24.0369L27.8371 25.4607V25.4607C27.8553 25.8633 28.3381 26.0583 28.6308 25.7813L28.9206 25.507L29.6653 24.8036C29.8354 24.643 30.0166 24.4947 30.2076 24.3597L30.459 24.1821C30.6671 24.0351 30.8946 23.9177 31.1351 23.8334L31.1657 23.8227C31.3781 23.7482 31.6 23.7026 31.8246 23.6873V23.6873C32.0479 23.672 32.2729 23.6867 32.4923 23.7312V23.7312C32.7275 23.7789 32.9546 23.8602 33.1666 23.9726L33.1818 23.9806C33.3654 24.078 33.5367 24.1969 33.6922 24.3347L33.7194 24.3589C33.872 24.4942 34.01 24.6451 34.1312 24.8092L34.1801 24.8755C34.322 25.0676 34.4449 25.273 34.5473 25.4887L34.736 25.8866L35.0602 26.6645L35.3287 27.359L35.5972 28.048L35.8473 28.4925L35.8713 28.5266C35.9698 28.6666 36.1117 28.7703 36.2751 28.8217V28.8217C36.3231 28.8368 36.3696 28.8565 36.4138 28.8805L36.6093 28.9869C36.7854 29.0826 36.9448 29.2062 37.0815 29.3528V29.3528C37.1965 29.4763 37.2942 29.6148 37.3719 29.7647L37.3974 29.8139C37.4749 29.9633 37.532 30.1223 37.5672 30.2868V30.2868C37.6057 30.4663 37.6177 30.6505 37.603 30.8335L37.6012 30.8558C37.5864 31.0389 37.547 31.2191 37.484 31.3916L37.4529 31.4766C37.4126 31.5869 37.3605 31.6926 37.2976 31.7918V31.7918C37.2552 31.8587 37.208 31.9225 37.1564 31.9826L37.1285 32.015C37.0418 32.116 36.9463 32.2089 36.8431 32.2928L36.8294 32.3039L36.7517 32.3569C36.6419 32.4316 36.5253 32.4957 36.4034 32.5484L36.3935 32.5526C36.2996 32.5931 36.2027 32.6262 36.1036 32.6516L36.0889 32.6553C35.9964 32.679 35.9022 32.6951 35.807 32.7035V32.7035C35.7172 32.7115 35.6268 32.7126 35.5368 32.7067L35.2921 32.6909L34.9192 32.6135L34.5991 32.515L34.3177 32.3989L34.094 32.2814L33.7521 32.0605L33.4847 31.8529L33.1822 31.5821L32.9289 31.3077L32.6616 30.97L32.4364 30.6358L32.162 30.1468L31.9193 29.6579L31.6731 29.0859V29.0859C31.5878 28.8619 31.302 28.7971 31.1285 28.9624L30.3047 29.7472L29.7876 30.201L29.0478 30.7744L28.3981 31.1911L27.9455 31.4197L27.4437 31.5989L27.3013 31.6284C27.0652 31.6773 26.8248 31.7019 26.5838 31.7019H26.4586C26.3448 31.7019 26.2312 31.6924 26.119 31.6735V31.6735C25.9838 31.6507 25.8513 31.6143 25.7234 31.565L25.568 31.505C25.4595 31.4631 25.3548 31.412 25.255 31.3521V31.3521C25.1461 31.2868 25.0435 31.2113 24.9487 31.1268L24.7597 30.9581L24.5419 30.726L24.3716 30.4885V30.4885C24.2374 30.238 24.1223 29.9776 24.0275 29.7097L24.0177 29.682L23.9415 29.4266L23.8698 29.0233L23.8474 28.5932V26.466C23.8474 26.3002 23.643 26.2216 23.5319 26.3447V26.3447L22.9494 27.0482L22.6223 27.4111L22.2639 27.8189L21.7782 28.3279L21.4555 28.646L21.003 29.0717L20.5146 29.5019L20.0082 29.9007L18.8656 30.6848L17.5752 31.5003L16.8448 31.917L16.3304 32.1832L15.9137 32.349L15.488 32.4968L15.0444 32.6044L14.6412 32.6626L14.3947 32.685L14.1623 32.6743C13.9949 32.6665 13.8282 32.6461 13.6639 32.6132L13.6228 32.605C13.4566 32.5718 13.2938 32.5239 13.1362 32.4618L13.1046 32.4493C12.988 32.4034 12.8752 32.3485 12.7671 32.2851V32.2851C12.6515 32.2173 12.5418 32.14 12.439 32.054L12.2753 31.917L12.2066 31.8488C12.0555 31.6986 11.9166 31.5365 11.7914 31.3641V31.3641L11.648 31.1177L11.5225 30.8533L11.4015 30.5217L11.3074 30.1722L11.2358 29.7734L11.2044 29.4508L11.182 29.0475L11.2044 28.6711L11.2716 28.0259L11.4508 27.0312L11.6301 26.144L11.7681 25.4736L11.8577 24.9539L11.9652 24.2907L12.0593 23.632L12.1355 23.0137L12.1476 22.7078C12.1541 22.5444 12.0854 22.3871 11.9612 22.2808V22.2808C11.9347 22.258 11.9104 22.2327 11.8888 22.2053L11.8092 22.1042C11.7407 22.0171 11.6802 21.924 11.6284 21.826L11.6159 21.8025C11.539 21.657 11.4806 21.5025 11.4421 21.3426V21.3426C11.4003 21.1694 11.3822 20.9913 11.3882 20.8133L11.3886 20.8026C11.3942 20.6367 11.42 20.4721 11.4652 20.3124L11.4794 20.2625C11.5376 20.0572 11.6289 19.8626 11.7496 19.6866L11.7668 19.6615C11.8486 19.5423 11.945 19.4338 12.0538 19.3385V19.3385C12.1593 19.2463 12.2755 19.1672 12.4001 19.103L12.4469 19.0789C12.586 19.0073 12.7326 18.9513 12.8841 18.9121L12.892 18.91C13.0597 18.8666 13.2322 18.8446 13.4055 18.8446V18.8446Z" fill="#E9AB2C"/>
</svg>
