<svg width="15" height="20" viewBox="0 0 15 20" fill="none" xmlns="http://www.w3.org/2000/svg">
<path d="M10.53 1.45432L6.93623 17.8039H10.4995C10.6596 17.8039 10.8131 17.8675 10.9262 17.9807C11.1619 18.2164 11.1619 18.5985 10.9262 18.8342C10.8131 18.9474 10.6596 19.0109 10.4995 19.0109H1.37033C1.21027 19.0109 1.05676 18.9474 0.943585 18.8342C0.707903 18.5985 0.707903 18.2164 0.943585 17.9807C1.05676 17.8675 1.21027 17.8039 1.37033 17.8039H4.68666L7.97863 1.45432H5.39745C5.24098 1.45432 5.09092 1.39217 4.98029 1.28153C4.74989 1.05114 4.74989 0.6776 4.98029 0.447208C5.09092 0.33657 5.24098 0.274414 5.39745 0.274414H13.6599C13.8164 0.274414 13.9664 0.33657 14.077 0.447208C14.3074 0.6776 14.3074 1.05114 14.077 1.28153C13.9664 1.39217 13.8164 1.45432 13.6599 1.45432H10.53Z" fill="white"/>
</svg>
