<svg width="50" height="40" viewBox="0 0 50 40" fill="none" xmlns="http://www.w3.org/2000/svg">
<path fill-rule="evenodd" clip-rule="evenodd" d="M0.705078 33.0443V6.97641C0.705079 2.46709 2.92598 0.362183 6.85243 0.362183H12.7663C14.9716 0.362183 16.1169 0.642739 17.7465 1.95738L18.7957 2.9063C19.9908 3.83925 20.8688 4.22934 22.3787 4.22934H42.7755C47.3551 4.22934 49.7027 6.48972 49.7027 11.0428V33.0427C49.7027 37.5233 47.4267 39.8771 43.3673 39.8771H7.57103C2.92586 39.8771 0.705078 37.55 0.705078 33.0443ZM4.43361 7.13443V12.4865L45.9463 12.4752V11.2892C45.9463 9.10835 44.7524 7.97016 42.6272 7.97016H21.4553C19.2213 7.97016 18.0903 7.47633 16.608 6.31461L15.446 5.32765C14.2036 4.2895 13.4038 4.00014 11.8802 4.00014H7.56789C5.50545 4.00014 4.43361 5.00185 4.43361 7.13443ZM4.43361 15.9121H45.9463C45.9463 15.9121 45.9396 30.6717 45.9396 32.8357C45.9396 34.9997 44.7344 36.1814 42.6244 36.1814H7.71795C5.53012 36.1814 4.43361 35.041 4.43361 32.856V15.9121Z" fill="#E9AB2C"/>
</svg>
