<svg width="17" height="20" viewBox="0 0 17 20" fill="none" xmlns="http://www.w3.org/2000/svg">
<path fill-rule="evenodd" clip-rule="evenodd" d="M0.496582 18.3766V1.91376C0.496582 1.42152 0.692105 0.949444 1.04014 0.601357C1.38825 0.253209 1.8604 0.0576172 2.35272 0.0576172H10.8358C11.3757 0.0576172 11.9101 0.166917 12.4066 0.378931L12.7013 0.504762C13.6625 0.915191 14.4249 1.68554 14.8253 2.65097L15.0108 3.09812C15.2123 3.58391 15.316 4.10467 15.316 4.6306V4.92253C15.316 5.37601 15.2389 5.82619 15.088 6.25382L15.0772 6.2844C14.606 7.61942 13.4642 8.60593 12.0749 8.87836L11.237 9.04266L13.2843 9.76905C14.1405 10.0729 14.8679 10.6592 15.3466 11.4314L15.4583 11.6117C15.8506 12.2446 16.0584 12.9744 16.0584 13.719V15.0522C16.0584 15.8859 15.7979 16.6988 15.3134 17.3772L15.1526 17.6022C14.6718 18.2754 13.994 18.7829 13.2127 19.0549L12.2928 19.3751C11.87 19.5223 11.4255 19.5975 10.9777 19.5975H1.71749C1.39368 19.5975 1.08314 19.4689 0.854177 19.2399C0.625213 19.0109 0.496582 18.7004 0.496582 18.3766ZM3.99735 2.54595V8.05801H8.31145C8.68479 8.05801 9.05388 7.97871 9.39427 7.82535V7.82535C10.1764 7.47298 10.7382 6.7621 10.9002 5.9197L10.9596 5.6106C11.0287 5.25142 11.0181 4.88146 10.9285 4.52684V4.52684C10.7468 3.80739 10.2548 3.2059 9.58567 2.88519L9.45389 2.82203C9.0747 2.64029 8.65957 2.54595 8.23907 2.54595H3.99735ZM3.99735 16.9686V10.9662H9.0995C10.0669 10.9662 10.9741 11.4353 11.5334 12.2246V12.2246C12.2571 13.246 12.258 14.6224 11.5479 15.6533V15.6533C10.9844 16.4712 10.0486 16.9686 9.05543 16.9686H3.99735Z" fill="white"/>
</svg>
