<svg width="16" height="25" viewBox="0 0 16 25" fill="none" xmlns="http://www.w3.org/2000/svg">
<path d="M2.04964 12.621V1.02497C2.04964 0.457279 1.58943 -0.00292969 1.02174 -0.00292969C0.454049 -0.00292969 -0.00615809 0.45727 -0.00616611 1.02496L-0.00632253 12.098C-0.00633907 13.269 0.257252 14.4249 0.764903 15.4802C1.25181 16.4923 1.89391 17.4435 2.8711 17.9971C3.95745 18.6126 5.68302 19.2879 8.02504 19.2879C12.3279 19.2879 13.3351 18.1425 14.284 17.173C15.2328 16.2035 15.9572 15.2253 15.9572 13.877V0.952075C15.9572 0.42136 15.527 -0.00292969 14.9963 -0.00292969C14.4655 -0.00292969 14.0353 0.427299 14.0353 0.958013V13.6C14.0353 13.7839 14.0137 13.9665 13.9651 14.1439C13.6589 15.261 12.7548 17.6511 8.02504 17.6511C4.33749 17.6511 3.25965 16.1266 2.66436 14.9674C2.2962 14.2505 2.04964 13.4269 2.04964 12.621Z" fill="white"/>
<path d="M15.0747 24.2377H0.88932C0.72135 24.2377 0.560259 24.1709 0.441486 24.0522C0.194154 23.8048 0.194154 23.4038 0.441486 23.1565C0.560259 23.0377 0.721349 22.971 0.88932 22.971H15.0747C15.2427 22.971 15.4038 23.0377 15.5226 23.1565C15.7699 23.4038 15.7699 23.8048 15.5226 24.0522C15.4038 24.1709 15.2427 24.2377 15.0747 24.2377Z" fill="white"/>
</svg>
