<svg width="22" height="22" viewBox="0 0 22 22" fill="none" xmlns="http://www.w3.org/2000/svg">
<path d="M17.2059 6.00064C17.1273 5.98442 17.0563 5.96801 16.9981 5.95256C16.8981 5.92601 16.8151 5.86384 16.7442 5.78851L16.3954 5.4181C16.197 5.20738 16.0181 4.9791 15.861 4.73606L15.825 4.68051C15.5271 4.21971 15.1612 3.80616 14.7014 3.50664L14.6908 3.49971C14.4855 3.36596 14.2275 3.19794 13.8708 2.95143C13.669 2.81204 13.4018 2.7308 13.1157 2.66691C12.4657 2.52177 11.7966 2.45608 11.1306 2.45608H11.0819C10.5649 2.45608 10.0497 2.51588 9.5464 2.6343L8.79295 2.81158C8.10453 2.97356 7.47299 3.31939 6.96571 3.81218L6.89619 3.87971C6.46158 4.3019 6.14276 4.8287 5.97033 5.40956L5.95649 5.45615C5.86871 5.75186 5.82412 6.05871 5.82412 6.36718C5.82412 6.88222 5.9484 7.38966 6.18639 7.84642L6.28643 8.03841C6.50705 8.46181 6.81229 8.83538 7.18324 9.13595C7.63404 9.50121 8.16888 9.74818 8.73928 9.85443L10.7561 10.2301L11.0635 10.2822C11.314 10.3246 11.5635 10.3719 11.812 10.4238H20.7453C20.8995 10.4238 21.0475 10.4851 21.1565 10.5942C21.3837 10.8213 21.3837 11.1895 21.1565 11.4167C21.0475 11.5257 20.8995 11.587 20.7453 11.587H15.516C15.711 11.67 15.9047 11.7561 16.0972 11.8454C16.5909 12.1416 16.9973 12.5635 17.2749 13.068L17.3863 13.2705C17.6586 13.7653 17.828 14.3107 17.9002 14.8709C17.9493 15.2515 17.9928 15.619 17.9928 15.9813C17.9928 16.2357 17.9452 16.5449 17.8789 16.8651C17.6965 17.7478 17.2591 18.5598 16.6792 19.2498L16.6447 19.2908C16.1283 19.9053 15.4812 20.3968 14.7507 20.7295C14.0485 21.0493 13.2859 21.2148 12.5142 21.2148H11.5314L10.0265 21.1328C9.45277 21.1015 8.88536 20.997 8.33808 20.8218C7.46109 20.5412 6.65084 20.084 5.95725 19.4784L5.47942 19.0611L5.23904 18.8207C4.89826 18.4799 4.60298 18.0965 4.36052 17.6799L3.97079 17.0104C3.91452 16.9137 3.87484 16.8083 3.85341 16.6985L3.80806 16.4662C3.75165 16.1773 3.88837 15.8851 4.14629 15.7432C4.40212 15.6025 4.71934 15.6417 4.93329 15.8403L5.36867 16.2446C5.44232 16.313 5.5089 16.3886 5.56742 16.4703L5.89481 16.9274C6.37372 17.5961 6.98523 18.159 7.69123 18.581C8.22358 18.8991 8.80213 19.1327 9.40618 19.2733L10.43 19.5116C10.804 19.5987 11.1868 19.6426 11.5709 19.6426C12.3522 19.6426 13.1233 19.4613 13.8209 19.1096C14.2119 18.9125 14.5451 18.7432 14.5896 18.7165C14.6143 18.7017 14.6973 18.6359 14.8124 18.5417C15.4981 17.9802 15.9538 17.1882 16.1258 16.3188L16.14 16.2471C16.2115 15.8856 16.2251 15.515 16.1801 15.1492L16.1728 15.0893C16.1229 14.6828 15.9942 14.2891 15.7946 13.9315C15.5206 13.4405 15.12 13.0306 14.6352 12.7459C14.3482 12.5774 14.0364 12.4553 13.7114 12.384L11.9406 11.9962L9.65771 11.587H1.32687C1.17263 11.587 1.0247 11.5257 0.915633 11.4167C0.688512 11.1895 0.688512 10.8213 0.915633 10.5942C1.0247 10.4851 1.17263 10.4238 1.32687 10.4238H5.96011C5.87435 10.3568 5.79137 10.2859 5.71145 10.2112C5.34519 9.86896 5.052 9.45611 4.84957 8.99753L4.734 8.73573C4.52869 8.27063 4.39389 7.77751 4.33407 7.27264L4.31689 7.12759C4.25942 6.64254 4.26017 6.15224 4.32131 5.66763C4.36871 5.29187 4.41417 4.94046 4.42431 4.88977C4.44584 4.78208 5.60877 3.08066 5.69492 2.95143C5.72109 2.91218 5.90748 2.76819 6.16049 2.58264C7.05227 1.92865 8.08457 1.47701 9.1577 1.20989C10.0905 0.977694 11.0622 0.893496 12.0208 0.964289L12.6393 1.00996C13.541 1.07655 14.4176 1.33835 15.2081 1.77722C15.5445 1.96394 15.8629 2.18137 16.1592 2.42673L16.9156 3.05307C17.1446 3.24269 17.3476 3.46162 17.5195 3.70424L17.5848 3.79648C17.8529 4.17506 18.027 4.61207 18.0927 5.07133L18.1183 5.25038C18.1208 5.26799 18.122 5.28576 18.122 5.30355C18.122 5.35721 18.1105 5.41026 18.0883 5.45911L18.0478 5.54839C17.8994 5.87468 17.5569 6.07313 17.2059 6.00064Z" fill="white"/>
</svg>
