<svg width="60" height="60" viewBox="0 0 60 60" fill="none" xmlns="http://www.w3.org/2000/svg">
<rect x="2.87573" y="3.02832" width="54.2784" height="21.1821" rx="10.5911" stroke="white" stroke-width="4.5"/>
<path fill-rule="evenodd" clip-rule="evenodd" d="M59.4042 46.3342C59.4042 39.2423 53.655 33.4932 46.5631 33.4932H13.4668C6.37487 33.4932 0.625732 39.2423 0.625732 46.3342V46.3342C0.625732 53.4262 6.37487 59.1753 13.4668 59.1753H46.5631C53.655 59.1753 59.4042 53.4262 59.4042 46.3342V46.3342ZM42.8664 50.7285C45.2952 53.7036 49.8083 53.8185 52.3982 50.9824V50.9824C54.4854 48.6967 54.6079 45.2253 52.6779 42.8053V42.8053C50.0704 39.5358 45.0499 39.6828 42.6222 43.0879V43.0879C40.9753 45.3978 41.0724 48.5309 42.8664 50.7285V50.7285Z" fill="white"/>
<circle cx="13.5339" cy="13.6193" r="5.96552" fill="white"/>
</svg>
