<svg width="42" height="43" viewBox="0 0 42 43" fill="none" xmlns="http://www.w3.org/2000/svg">
<path d="M16.087 42.2268V36.3428L15.505 36.4938C14.458 36.7668 11.99 36.6548 10.895 36.2838C9.32704 35.7538 8.38204 34.8598 7.40504 32.9808C6.60204 31.4368 5.89304 30.5828 4.34004 29.2858C3.81404 28.8478 3.74504 28.6898 3.93804 28.3728C4.24004 27.8768 4.82704 27.7998 5.96304 28.1048C6.90904 28.3598 7.95404 29.2888 9.59104 31.3278C10.689 32.6978 11.829 33.2668 13.441 33.2518C14.993 33.2368 16.299 32.7338 16.299 32.1498C16.299 31.9228 16.57 31.2208 16.902 30.5898L17.505 29.4438L15.599 29.0578C10.993 28.1268 8.17004 25.6778 6.80404 21.4278C6.55304 20.6458 6.46304 19.5138 6.46004 17.0888C6.45704 13.9368 6.48004 13.7588 7.04704 12.5468C7.37204 11.8538 7.88004 10.9678 8.17604 10.5798C8.69904 9.89381 8.70704 9.83381 8.46704 8.40981C8.21504 6.91381 8.40304 4.71781 8.89504 3.42381C9.10804 2.86481 9.13704 2.85681 10.43 3.00181C11.892 3.16481 12.975 3.58681 14.835 4.71681L16.082 5.47381L18.228 5.11481C20.756 4.69281 25.86 4.79381 27.661 5.30281C28.729 5.60481 28.777 5.59881 29.541 5.07981C30.904 4.15381 33.353 3.13281 34.551 2.99281L35.706 2.85681L36.068 3.75981C36.579 5.03781 36.728 7.10981 36.415 8.58481L36.151 9.82881L36.886 10.8658C38.247 12.7838 38.608 14.0928 38.606 17.0888C38.603 20.1168 38.262 21.7268 37.202 23.7158C35.774 26.3958 33.238 28.1128 29.443 28.9688L27.367 29.4368L27.959 30.4068C28.807 31.7948 28.998 33.2808 29.008 38.5588C29.011 39.9932 29.023 41.0741 29.0791 42.2268H31.9019C31.7689 40.3978 31.7314 38.8858 31.706 36.6148C31.657 32.3078 31.699 31.2708 31.923 31.2708C32.497 31.2708 35.289 29.8178 36.513 28.8818C39.595 26.5258 41.187 22.9978 41.425 18.0018C41.592 14.4928 41.143 12.3738 39.711 9.91381C39.361 9.31281 39.3 8.86181 39.341 7.16281C39.415 4.03481 38.557 1.40381 37.193 0.570809C35.719 -0.327191 32.706 0.14981 29.613 1.77081C28.217 2.50181 28.217 2.50181 26.756 2.25481C24.916 1.94381 19.799 1.93381 18.021 2.23781C16.675 2.46781 16.673 2.46781 15.163 1.64481C13.34 0.649808 11.521 0.15581 9.68504 0.15581C7.38004 0.15581 6.44204 1.13181 5.80304 4.19581C5.62404 5.05381 5.49704 6.56781 5.52104 7.55981C5.55904 9.17181 5.50404 9.46381 5.00304 10.3158C3.18404 13.4058 2.90904 18.7958 4.36104 22.9098C4.64904 23.7248 4.93904 24.5578 5.00704 24.7618C5.10604 25.0598 5.00604 25.1318 4.49604 25.1318C2.90004 25.1318 1.21704 26.5328 0.95604 28.0788C0.75004 29.2998 1.39904 30.5268 2.97804 31.9008C3.89304 32.6958 4.46004 33.4228 4.99404 34.4838C6.42604 37.3268 8.44004 38.8208 11.546 39.3428C13.11 39.6058 13.124 39.6138 13.114 40.2548V42.2268H16.087Z" fill="#0A84FF"/>
</svg>
