<svg width="69" height="64" viewBox="0 0 69 64" fill="none" xmlns="http://www.w3.org/2000/svg">
<path d="M0.0209364 43.0212C0.0325989 40.6795 1.94033 38.7904 4.28196 38.8017L36.4495 38.9571C41.1328 38.9797 44.9104 42.7946 44.8871 47.4778L4.23972 47.2815C1.89809 47.2702 0.0092739 45.3628 0.0209364 43.0212Z" fill="#0F8BFE"/>
<path d="M50.3657 43.2624C50.3773 40.9207 52.2851 39.0316 54.6267 39.0429L64.76 39.0919C67.1016 39.1032 68.9905 41.0106 68.9788 43.3523C68.9671 45.6939 67.0594 47.583 64.7178 47.5717L54.5845 47.5228C52.2428 47.5114 50.354 45.604 50.3657 43.2624Z" fill="#0F8BFE"/>
<rect width="51.0526" height="8.57906" rx="4.28953" transform="matrix(0.5058 -0.862651 0.869336 0.494222 11.5035 44.5127)" fill="#0F8BFE"/>
<path d="M6.91074 60.8241C4.85125 59.6532 4.15309 57.0474 5.35135 55.0037L9.57298 47.8037L11.5386 48.9211C14.572 50.6456 15.6003 54.4838 13.8354 57.4938L12.8094 59.2437C11.6112 61.2874 8.97024 61.9949 6.91074 60.8241Z" fill="#0F8BFE"/>
<rect width="17.0934" height="8.57906" rx="4.28953" transform="matrix(0.5058 0.862651 -0.869336 0.494222 30.4439 0.648438)" fill="#0F8BFE"/>
<path d="M40.9439 18.5586L62.3698 55.1008C63.5681 57.1444 62.8699 59.7503 60.8104 60.9211C58.7509 62.092 56.11 61.3844 54.9117 59.3407L37.8251 30.1993C35.4286 26.112 36.8249 20.9003 40.9439 18.5586Z" fill="#0F8BFE"/>
</svg>
