<svg width="63" height="80" viewBox="0 0 63 80" fill="none" xmlns="http://www.w3.org/2000/svg">
<path d="M17.1514 6C17.1514 4.067 18.7184 2.5 20.6514 2.5H37.8054C38.7337 2.5 39.6239 2.86875 40.2803 3.52513L59.4747 22.7195C60.1311 23.3759 60.4998 24.2662 60.4998 25.1944V52.6042C60.4998 54.5372 58.9328 56.1042 56.9998 56.1042H46.4535V47.5283C46.4535 45.2806 45.5632 43.1244 43.9775 41.5315L27.4311 24.91C25.8359 23.3076 23.6681 22.4068 21.4071 22.4068H17.1514V6Z" stroke="#0F8BFE" stroke-width="5"/>
<path d="M41 4.51074V27.5107H59" stroke="#0F8BFE" stroke-width="5"/>
<path d="M2.5 26.5107C2.5 24.5777 4.067 23.0107 6 23.0107H23.1541C24.0823 23.0107 24.9726 23.3795 25.6289 24.0359L44.8234 43.2303C45.4797 43.8867 45.8485 44.7769 45.8485 45.7052V73.115C45.8485 75.048 44.2815 76.615 42.3485 76.615H6C4.067 76.615 2.5 75.048 2.5 73.115V26.5107Z" stroke="#0F8BFE" stroke-width="5"/>
<path d="M23.442 22.7087V45.4179H45.4186" stroke="#0F8BFE" stroke-width="5"/>
</svg>
