<svg width="50" height="40" viewBox="0 0 50 40" fill="none" xmlns="http://www.w3.org/2000/svg">
<path fill-rule="evenodd" clip-rule="evenodd" d="M0.0537113 33.0006V6.93277C0.0537121 2.42345 2.27461 0.318542 6.20106 0.318542H12.115C14.3202 0.318542 15.4655 0.599099 17.0951 1.91374L18.1444 2.86266C19.3394 3.7956 20.2174 4.1857 21.7273 4.1857H42.1241C46.7037 4.1857 49.0513 6.44608 49.0513 10.9992V32.9991C49.0513 37.4797 46.7754 39.8335 42.7159 39.8335H6.91966C2.2745 39.8335 0.0537113 37.5064 0.0537113 33.0006ZM3.78224 7.09079V12.4428L45.2949 12.4315V11.2456C45.2949 9.06471 44.101 7.92652 41.9759 7.92652H20.8039C18.57 7.92652 17.439 7.43269 15.9567 6.27097L14.7946 5.28401C13.5523 4.24586 12.7524 3.9565 11.2288 3.9565H6.91652C4.85408 3.9565 3.78224 4.95821 3.78224 7.09079ZM3.78224 15.8684H45.2949C45.2949 15.8684 45.2883 30.628 45.2883 32.792C45.2883 34.9561 44.083 36.1377 41.973 36.1377H7.06658C4.87875 36.1377 3.78224 34.9973 3.78224 32.8123V15.8684Z" fill="#0A84FF"/>
</svg>
